<?xml version="1.0" encoding="UTF-8"?>
<svg id="Layer_1" data-name="Layer 1" xmlns="http://www.w3.org/2000/svg" viewBox="0 0 1080 1080">
  <defs>
    <style>
      .cls-1 {
        fill: #000;
        stroke-width: 0px;
      }

      .cls-2 {
        fill: #cfcfcf;
      }

      .cls-2, .cls-3, .cls-4 {
        stroke: #000;
        stroke-linecap: round;
        stroke-linejoin: round;
        stroke-width: 18px;
      }

      .cls-3 {
        fill: #fce68d;
      }

      .cls-4 {
        fill: #fcd94c;
      }
    </style>
  </defs>
  <circle class="cls-4" cx="540" cy="540" r="324.4"/>
  <g>
    <g>
      <path class="cls-3" d="M298.98,621.82s68.94-6.64,79.15,0,65.03,125.81,69.52,137.87c4.65,12.51-2.34,35.79-26.42,24.26-23.95-11.47-92.93-76.34-92.93-76.34l-43.11-22.98,13.79-62.81Z"/>
      <path class="cls-3" d="M269.37,674.42s60.26-10.21,67.91-6.64c7.66,3.57,74.46,100.11,81.19,122.55,3.45,11.49,2.04,35.36-5.36,40.72-6.2,4.49-38.55,13.66-48.58-16.21-7.7-22.93-124.78-78.51-124.78-78.51l29.62-61.92Z"/>
      <path class="cls-3" d="M258.13,723.7s42.79-9.82,57.13-.09c25.34,17.2,66.44,93.03,67.72,123.41.73,17.38-4.17,36.06-46.47,19.15-52.09-20.82-87.32-71.74-87.32-71.74l8.94-70.72Z"/>
    </g>
    <path class="cls-3" d="M264.35,768.89s44.96,15.23,63.34,6.38c18.38-8.85,77.85-76.66,96.77-81.96,25.53-7.15,30.1.02,31.29,8.27,1.7,11.82-47.54,109.98-112,164.67-40.93,34.73-103.6,64.09-144.29,109.69-6.5,7.29-17.68,7.9-24.8,1.22l-93.48-87.55c-5.09-4.77-6.82-12.14-4.37-18.67,12.79-34.14,52.13-138.29,61.07-152.35,10.72-16.85,122.42-135.57,156.19-157.79,33.77-22.21,111.64-74.81,133.34-77.89,10.88-1.54,20.34,23.82,14.62,42.33-8.23,26.62-101.17,67.98-118.53,88.4-12.17,14.32-46.13,90.72-42.04,110.64s18.43,51.43,18.43,51.43"/>
  </g>
  <g>
    <g>
      <path class="cls-2" d="M628.64,396.66s40.67,58.69,49.86,66.35c9.19,7.66,55.72,35.94,63.68,33.37,11.41-3.69,16.15-27.18-2.79-47.92-17.49-19.15-47.11-25.28-47.11-25.28l-18.53-55.28-45.12,28.76Z"/>
      <path class="cls-2" d="M662.17,384.89l29.94,36.77s71.93,7.68,77.04,4.61c5.11-3.06,4.09-29.62-5.36-34.73-9.45-5.12-27.25-13.1-33.38-14.03-5.17-.79-53.43-1.04-53.43-1.04l-14.81,8.43Z"/>
    </g>
    <g>
      <path class="cls-2" d="M659.36,311.36s34.72,10.73,38.13,28.26c3.4,17.53-14.66,43.24-28.94,51.4-14.28,8.17-43.57,7.17-53.79-1.02-8.85-7.09,21.75-69.11,44.6-78.64Z"/>
      <path class="cls-2" d="M610.93,402.76c1.06-7.03,4.17-10.21,22.55-10.55,18.38-.34,27.91,7.08,29.96,18.55s8.85,38.39,5.11,50.89c-1.47,4.91-35.58,40.44-43.01,28.66-6.85-10.87-16.26-76.54-14.6-87.55Z"/>
      <path class="cls-2" d="M628.64,496.97c-4.33-13.4,34.2-33.19,41.01-28.34,6.81,4.85,34.25,20.95,45.11,43.15,7.62,15.58,10.93,26.09-5.36,41.11-7.98,3.64-28.19-12.28-47.49-27.57-15.9-12.6-31.97-24.3-33.27-28.34Z"/>
    </g>
    <g>
      <path class="cls-2" d="M651.26,275.29s1.75-15.51,39.14-34.91c19.86-10.31,102.53-52.9,154.84-88.6,46.14-31.49,63.18-57.48,70.21-53.11,10.21,21.84,7.15,48.51,19.82,72.1,39.79,21.9,72.25,24.65,68.78,34.62-2.41,6.94-32,26.65-59.6,55.91-37.37,39.63-73.79,90.7-78.78,93.57-8.68,4.98-45.96-22.08-54.64-22.08s-44.35,20.89-70.56,17.2c-82.12-11.58-89.2-74.71-89.2-74.71Z"/>
      <path class="cls-2" d="M866.68,138.5s64.73,25.82,68.49,33.47c3.76,7.64,23.42,74.16,23.42,74.16"/>
      <path class="cls-2" d="M837.8,157.01s41.64,15.2,65.13,39.45c24.94,25.75,31.56,73.74,31.24,74.51"/>
      <circle class="cls-4" cx="935.26" cy="170.78" r="34.82"/>
    </g>
    <g>
      <path class="cls-2" d="M803,314.93c19.58-17.29,60.1-5.75,68.01,21.19,8.94,30.42-36.63,85.25-35.74,97.79.89,12.54,6.14,51.88.9,67.81-5.24,15.93-33.27,19.73-49.41-9.03-16.95-30.21-3.83-81.19-2.3-96.03s-8.94-57.48,18.54-81.73Z"/>
      <path class="cls-2" d="M781.2,417.48s7.86-16.15,29.65-8.54c21.79,7.61,24.68,22.16,24.68,22.16"/>
    </g>
    <g>
      <path class="cls-2" d="M580.72,298.59s67.91-39.83,78.77-39.32c26.27,1.24,35.92,26.76,28.47,44.08-8.28,19.24-60.74,43-75.04,46.45-14.3,3.45-57.21-38.96-32.19-51.21Z"/>
      <path class="cls-2" d="M511.53,346.33s49.1-37.05,62.55-39.57c20.43-3.83,36.94,35.57,28.09,47.83-5.82,8.06-50.66,36.8-60.51,38.72-10.47,2.04-47.74-32.68-30.13-46.98Z"/>
      <path class="cls-2" d="M495.19,364.21s12-12,20.17-3.57,27.57,23.08,17.87,41.29c-9.7,18.2-35.85,48.86-42.64,53.69-15.06,10.72-42.58,9.68-37.47-15.34,5.11-25.02,42.07-76.06,42.07-76.06Z"/>
    </g>
    <g>
      <circle class="cls-1" cx="639.2" cy="419.96" r="9.95"/>
      <circle class="cls-1" cx="935.26" cy="170.78" r="13.63"/>
      <circle class="cls-1" cx="824.94" cy="360.64" r="10.59"/>
      <circle class="cls-1" cx="567.6" cy="343.85" r="10.4"/>
      <circle class="cls-1" cx="656.66" cy="292.43" r="10.69"/>
    </g>
  </g>
</svg>