<?xml version="1.0" encoding="UTF-8"?>
<svg id="Layer_1" data-name="Layer 1" xmlns="http://www.w3.org/2000/svg" viewBox="0 0 1080 1080">
  <defs>
    <style>
      .cls-1 {
        fill: none;
      }

      .cls-1, .cls-2, .cls-3, .cls-4, .cls-5, .cls-6, .cls-7 {
        stroke: #000;
        stroke-linecap: round;
        stroke-linejoin: round;
        stroke-width: 18px;
      }

      .cls-2 {
        fill: #cfcfcf;
      }

      .cls-3 {
        fill: #fce68d;
      }

      .cls-4 {
        fill: #38fc14;
      }

      .cls-5 {
        fill: #ffdd56;
      }

      .cls-6 {
        fill: #afacb0;
      }

      .cls-7 {
        fill: #000;
      }
    </style>
  </defs>
  <g>
    <g>
      <path class="cls-3" d="M194.65,943.22c1.26-12.41,1.07-31.03-3.6-49.39-3.97-15.63-12.13-29.88-23.38-41.42-60.87-62.43-88.42-81.95-88.42-121.44v-282.25c0-25.38,20.58-45.96,45.96-45.96h0c25.38,0,45.96,20.58,45.96,45.96v227.17s148.09,40.78,148.09,40.78l42.19,43c14.23,14.5,21.23,34.61,19.08,54.81l-8.67,81.42-177.19,47.32Z"/>
      <path class="cls-3" d="M240.26,773.42l-68.53-68.53c-18.71-18.71-18.71-49.03,0-67.74h0c18.71-18.71,49.03-18.71,67.74,0l113.81,113.81"/>
      <rect class="cls-2" x="170.81" y="916.96" width="247.82" height="60.37" rx="11.54" ry="11.54" transform="translate(-232.59 106.97) rotate(-14.83)"/>
    </g>
    <g>
      <path class="cls-3" d="M885.35,943.22c-1.26-12.41-1.07-31.03,3.6-49.39,3.97-15.63,12.13-29.88,23.38-41.42,60.87-62.43,88.42-81.95,88.42-121.44v-282.25c0-25.38-20.58-45.96-45.96-45.96h0c-25.38,0-45.96,20.58-45.96,45.96v227.17s-148.09,40.78-148.09,40.78l-42.19,43c-14.23,14.5-21.23,34.61-19.08,54.81l8.67,81.42,177.19,47.32Z"/>
      <path class="cls-3" d="M839.74,773.42l68.53-68.53c18.71-18.71,18.71-49.03,0-67.74h0c-18.71-18.71-49.03-18.71-67.74,0l-113.81,113.81"/>
      <rect class="cls-2" x="661.37" y="916.96" width="247.82" height="60.37" rx="11.54" ry="11.54" transform="translate(1302.01 2063.73) rotate(-165.17)"/>
    </g>
  </g>
  <path class="cls-2" d="M470.23,777.93h138.04v58.21c0,26.63-21.62,48.26-48.26,48.26h-41.53c-26.63,0-48.26-21.62-48.26-48.26v-58.21h0Z"/>
  <path class="cls-5" d="M791.51,461.08c0-139.13-112.64-251.96-251.71-252.25-138.42-.29-250.62,109.84-252.77,248.24-1.44,92.77,47.21,174.29,120.66,219.28,17.27,10.58,27.91,29.27,27.91,49.52v63c0,16.66,13.51,30.17,30.17,30.17h146.98c16.66,0,30.17-13.51,30.17-30.17v-63c0-20.29,10.69-38.97,27.99-49.57,72.34-44.35,120.61-124.15,120.61-215.22Z"/>
  <line class="cls-6" x1="436.4" y1="758.61" x2="642.1" y2="758.61"/>
  <g>
    <line class="cls-1" x1="539.25" y1="74.52" x2="539.25" y2="140.4"/>
    <line class="cls-1" x1="731.9" y1="127.25" x2="698.36" y2="183.94"/>
    <line class="cls-1" x1="869.91" y1="269.02" x2="812.33" y2="301.03"/>
    <line class="cls-1" x1="346.97" y1="127.03" x2="380.45" y2="183.76"/>
    <line class="cls-1" x1="207.74" y1="270.56" x2="265.46" y2="302.3"/>
  </g>
  <g>
    <line class="cls-1" x1="540" y1="428.23" x2="540" y2="588.57"/>
    <path class="cls-4" d="M404.93,344.15s4.99,38.64,42.29,61.86c37.3,23.22,92.78,22.22,92.78,22.22,0,0-.35-42.4-37.65-65.62-37.3-23.22-97.42-18.46-97.42-18.46Z"/>
    <path class="cls-4" d="M649.49,359.44s-4.06,31.41-34.37,50.28c-30.31,18.87-75.4,18.06-75.4,18.06,0,0,.29-34.46,30.6-53.33,30.31-18.87,79.17-15,79.17-15Z"/>
    <path class="cls-7" d="M435.66,593.12h208.68c-55.22-24.9-96.13-48.27-103.54-68.07-8.31,21.45-53.25,46.98-105.14,68.07Z"/>
  </g>
</svg>