<?xml version="1.0" encoding="utf-8"?>
<!-- Generator: Adobe Illustrator 28.3.0, SVG Export Plug-In . SVG Version: 6.00 Build 0)  -->
<svg version="1.1" id="Layer_1" xmlns="http://www.w3.org/2000/svg" xmlns:xlink="http://www.w3.org/1999/xlink" x="0px" y="0px"
	 viewBox="0 0 1080 1080" style="enable-background:new 0 0 1080 1080;" xml:space="preserve">
<style type="text/css">
	.st0{fill:#CFCFCF;stroke:#000000;stroke-width:18;stroke-linecap:round;stroke-linejoin:round;stroke-miterlimit:10;}
	.st1{fill:#FFDD56;stroke:#000000;stroke-width:17.3686;stroke-linecap:round;stroke-linejoin:round;stroke-miterlimit:10;}
	.st2{fill:#38FC14;stroke:#000000;stroke-width:18;stroke-linecap:round;stroke-linejoin:round;stroke-miterlimit:10;}
</style>
<g>
	<g>
		<path class="st0" d="M330.7,435.4c48.1-48.1,364.1-51.2,415.3,0c47.2,47.2-77.7,191.6-180.3,548.2c-7.3,25.3-43.3,25.2-50.4-0.1
			C414.6,625.5,286.4,479.8,330.7,435.4z"/>
		<g>
			<path class="st0" d="M619.9,954.3c37-121.3,87.1-242.6,148.5-360.7c11.8-22.7,34.1-38,59.4-41c59.1-7,122.4,3.9,158.2,28.2
				c-112.6,78.5-218.5,207-334.7,388C640.3,985.9,613.9,973.7,619.9,954.3z"/>
			<path class="st0" d="M460.1,954.3C423.2,833,373,711.7,311.7,593.6c-11.8-22.7-34.1-38-59.4-41c-59.1-7-122.4,3.9-158.2,28.2
				c112.6,78.5,218.5,207,334.7,388C439.7,985.9,466.1,973.7,460.1,954.3z"/>
		</g>
	</g>
	<circle class="st1" cx="540" cy="215.5" r="138"/>
	<circle class="st2" cx="540" cy="544.8" r="57.4"/>
	<circle class="st1" cx="896.4" cy="427.4" r="73.9"/>
	<circle class="st1" cx="183.6" cy="427.4" r="73.9"/>
	<path class="st0" d="M330.7,435.4c0,0,177.6,193.9,165.1,228.6c-8.6,23.8-56.5,0.6-85.6-16.3c-14.7-8.5-27.4-21-33.8-36.7
		C355.4,559.1,303.6,466,330.7,435.4z"/>
	<path class="st0" d="M748.6,438.3c0,0-177.6,193.9-165.1,228.6c8.6,23.8,56.5,0.6,85.6-16.3c14.7-8.5,27.4-21,33.8-36.7
		C724,562,775.7,468.9,748.6,438.3z"/>
</g>
</svg>
