<?xml version="1.0" encoding="UTF-8"?>
<svg id="Layer_1" data-name="Layer 1" xmlns="http://www.w3.org/2000/svg" viewBox="0 0 1080 1080">
  <defs>
    <style>
      .cls-1, .cls-2 {
        fill: none;
      }

      .cls-1, .cls-2, .cls-3, .cls-4 {
        stroke-linecap: round;
        stroke-linejoin: round;
        stroke-width: 18px;
      }

      .cls-1, .cls-3, .cls-4 {
        stroke: #000;
      }

      .cls-5 {
        fill: #000;
      }

      .cls-5, .cls-6 {
        stroke-width: 0px;
      }

      .cls-6 {
        fill: #38fc14;
      }

      .cls-2 {
        stroke: #38fc14;
      }

      .cls-3 {
        fill: #cfcfcf;
      }

      .cls-4 {
        fill: #ffdd56;
      }
    </style>
  </defs>
  <path class="cls-3" d="M995.13,597.57v-115.14c0-11.51-9.33-20.85-20.85-20.85h-42.28c-9.53,0-17.72-6.55-20.06-15.79-9.21-36.48-23.66-70.87-42.48-102.35-4.87-8.14-3.45-18.56,3.25-25.27l29.81-29.81c8.14-8.14,8.14-21.34,0-29.48l-81.41-81.41c-8.14-8.14-21.34-8.14-29.48,0l-29.81,29.81c-6.7,6.7-17.13,8.12-25.27,3.25-31.48-18.82-65.87-33.27-102.35-42.48-9.24-2.33-15.79-10.53-15.79-20.06v-42.28c0-11.51-9.33-20.85-20.85-20.85h-115.14c-11.51,0-20.85,9.33-20.85,20.85v42.28c0,9.53-6.55,17.72-15.79,20.06-36.48,9.21-70.87,23.66-102.35,42.48-8.14,4.87-18.56,3.45-25.27-3.25l-29.81-29.81c-8.14-8.14-21.34-8.14-29.48,0l-81.41,81.41c-8.14,8.14-8.14,21.34,0,29.48l29.81,29.81c6.7,6.7,8.12,17.13,3.25,25.27-18.82,31.48-33.27,65.87-42.48,102.35-2.33,9.24-10.53,15.79-20.06,15.79h-42.28c-11.51,0-20.85,9.33-20.85,20.85v115.14c0,11.51,9.33,20.85,20.85,20.85h42.28c9.53,0,17.72,6.55,20.06,15.79,9.21,36.48,23.66,70.87,42.48,102.35,4.87,8.14,3.45,18.56-3.25,25.27l-29.81,29.81c-8.14,8.14-8.14,21.34,0,29.48l81.41,81.41c8.14,8.14,21.34,8.14,29.48,0l29.81-29.81c6.7-6.7,17.13-8.12,25.27-3.25,31.48,18.82,65.87,33.27,102.35,42.48,9.24,2.33,15.79,10.53,15.79,20.06v42.28c0,11.51,9.33,20.85,20.85,20.85h115.14c11.51,0,20.85-9.33,20.85-20.85v-42.28c0-9.53,6.55-17.72,15.79-20.06,36.48-9.21,70.87-23.66,102.35-42.48,8.14-4.87,18.56-3.45,25.27,3.25l29.81,29.81c8.14,8.14,21.34,8.14,29.48,0l81.41-81.41c8.14-8.14,8.14-21.34,0-29.48l-29.81-29.81c-6.7-6.7-8.12-17.13-3.25-25.27,18.82-31.48,33.27-65.87,42.48-102.35,2.33-9.24,10.53-15.79,20.06-15.79h42.28c11.51,0,20.85-9.33,20.85-20.85Z"/>
  <circle class="cls-4" cx="540" cy="540" r="324.4"/>
  <g>
    <polyline class="cls-1" points="676.91 540 540 540 540 322.71"/>
    <polygon class="cls-5" points="666.4 504.1 728.57 540 666.4 575.9 666.4 504.1"/>
    <polygon class="cls-5" points="575.9 333.22 540 271.05 504.1 333.22 575.9 333.22"/>
  </g>
  <g>
    <polyline class="cls-2" points="511.48 673.9 540 540 669.92 714.17"/>
    <polygon class="cls-6" points="548.79 671.11 500.72 724.44 478.56 656.15 548.79 671.11"/>
    <polygon class="cls-6" points="634.86 727.21 700.81 755.58 692.41 684.28 634.86 727.21"/>
  </g>
  <circle class="cls-4" cx="540" cy="540" r="27.21"/>
  <path class="cls-1" d="M450.01,650.65c-32.12-26.15-52.63-66-52.63-110.65,0-78.77,63.85-142.62,142.62-142.62,56.31,0,105,32.64,128.19,80.03"/>
  <path class="cls-1" d="M624.23,749.07c-26.02,10.49-54.45,16.27-84.23,16.27-124.45,0-225.34-100.89-225.34-225.34,0-105.94,73.11-194.8,171.62-218.9"/>
</svg>