<?xml version="1.0" encoding="UTF-8"?>
<svg id="Layer_1" data-name="Layer 1" xmlns="http://www.w3.org/2000/svg" viewBox="0 0 1080 1080">
  <defs>
    <style>
      .cls-1 {
        fill: none;
      }

      .cls-1, .cls-2, .cls-3, .cls-4 {
        stroke: #000;
        stroke-linecap: round;
        stroke-linejoin: round;
        stroke-width: 18px;
      }

      .cls-2 {
        fill: #cfcfcf;
      }

      .cls-3 {
        fill: #ffdd56;
      }

      .cls-4 {
        fill: #afacb0;
      }
    </style>
  </defs>
  <g>
    <rect class="cls-2" x="214.79" y="705.65" width="650.42" height="235.16"/>
    <rect class="cls-2" x="180.07" y="619.09" width="719.87" height="89.1"/>
    <path class="cls-2" d="M216.88,911.58h645.82c33.35,0,60.43,27.08,60.43,60.43v29.94H156.44v-29.94c0-33.35,27.08-60.43,60.43-60.43Z"/>
    <path class="cls-2" d="M236.34,677.47c0,32.24-26.14,58.38-58.38,58.38-32.24,0-58.38-26.14-58.38-58.38,0-32.24,26.14-58.38,58.38-58.38h62.59"/>
    <path class="cls-2" d="M843.66,677.47c0,32.24,26.14,58.38,58.38,58.38s58.38-26.14,58.38-58.38-26.14-58.38-58.38-58.38h-62.59"/>
    <g>
      <rect class="cls-2" x="267.06" y="751.66" width="51.42" height="114.58"/>
      <rect class="cls-2" x="390.67" y="751.66" width="51.42" height="114.58"/>
      <rect class="cls-2" x="514.29" y="751.66" width="51.42" height="114.58"/>
      <rect class="cls-2" x="637.9" y="751.66" width="51.42" height="114.58"/>
      <rect class="cls-2" x="761.52" y="751.66" width="51.42" height="114.58"/>
    </g>
  </g>
  <g>
    <path class="cls-4" d="M499.59,490.26h80.89v27.89c0,19.04-15.46,34.5-34.5,34.5h-11.89c-19.04,0-34.5-15.46-34.5-34.5v-27.89h0Z"/>
    <path class="cls-3" d="M687.86,304.58c0-81.54-66.01-147.66-147.51-147.83-81.12-.17-146.87,64.37-148.13,145.48-.84,54.37,27.66,102.14,70.71,128.5,10.12,6.2,16.36,17.15,16.36,29.02v36.92c0,9.77,7.92,17.68,17.68,17.68h86.13c9.77,0,17.68-7.92,17.68-17.68v-36.92c0-11.89,6.27-22.84,16.4-29.05,42.4-25.99,70.68-72.75,70.68-126.12Z"/>
    <path class="cls-2" d="M654.95,319.11v-29.07c0-2.91-2.36-5.26-5.26-5.26h-10.67c-2.41,0-4.47-1.65-5.06-3.99-2.33-9.21-5.97-17.89-10.72-25.84-1.23-2.05-.87-4.69.82-6.38l7.53-7.53c2.06-2.06,2.06-5.39,0-7.44l-20.56-20.56c-2.06-2.06-5.39-2.06-7.44,0l-7.53,7.53c-1.69,1.69-4.33,2.05-6.38.82-7.95-4.75-16.63-8.4-25.84-10.72-2.33-.59-3.99-2.66-3.99-5.06v-10.67c0-2.91-2.36-5.26-5.26-5.26h-29.07c-2.91,0-5.26,2.36-5.26,5.26v10.67c0,2.41-1.65,4.47-3.99,5.06-9.21,2.33-17.89,5.97-25.84,10.72-2.05,1.23-4.69.87-6.38-.82l-7.53-7.53c-2.06-2.06-5.39-2.06-7.44,0l-20.56,20.56c-2.06,2.06-2.06,5.39,0,7.44l7.53,7.53c1.69,1.69,2.05,4.33.82,6.38-4.75,7.95-8.4,16.63-10.72,25.84-.59,2.33-2.66,3.99-5.06,3.99h-10.67c-2.91,0-5.26,2.36-5.26,5.26v29.07c0,2.91,2.36,5.26,5.26,5.26h10.67c2.41,0,4.47,1.65,5.06,3.99,2.33,9.21,5.97,17.89,10.72,25.84,1.23,2.05.87,4.69-.82,6.38l-7.53,7.53c-2.06,2.06-2.06,5.39,0,7.44l20.56,20.56c2.06,2.06,5.39,2.06,7.44,0l7.53-7.53c1.69-1.69,4.33-2.05,6.38-.82,7.95,4.75,16.63,8.4,25.84,10.72,2.33.59,3.99,2.66,3.99,5.06v10.67c0,2.91,2.36,5.26,5.26,5.26h29.07c2.91,0,5.26-2.36,5.26-5.26v-10.67c0-2.41,1.65-4.47,3.99-5.06,9.21-2.33,17.89-5.97,25.84-10.72,2.05-1.23,4.69-.87,6.38.82l7.53,7.53c2.06,2.06,5.39,2.06,7.44,0l20.56-20.56c2.06-2.06,2.06-5.39,0-7.44l-7.53-7.53c-1.69-1.69-2.05-4.33-.82-6.38,4.75-7.95,8.4-16.63,10.72-25.84.59-2.33,2.66-3.99,5.06-3.99h10.67c2.91,0,5.26-2.36,5.26-5.26Z"/>
    <circle class="cls-3" cx="540.03" cy="304.58" r="59.3"/>
    <line class="cls-4" x1="479.76" y1="478.94" x2="600.31" y2="478.94"/>
    <g>
      <line class="cls-1" x1="540.03" y1="78.05" x2="540.03" y2="116.65"/>
      <line class="cls-1" x1="652.93" y1="108.95" x2="633.28" y2="142.17"/>
      <line class="cls-1" x1="733.81" y1="192.03" x2="700.07" y2="210.78"/>
      <line class="cls-1" x1="427.35" y1="108.82" x2="446.97" y2="142.06"/>
      <line class="cls-1" x1="345.76" y1="192.93" x2="379.59" y2="211.53"/>
    </g>
  </g>
</svg>