<?xml version="1.0" encoding="UTF-8"?>
<svg id="Layer_1" data-name="Layer 1" xmlns="http://www.w3.org/2000/svg" viewBox="0 0 1080 1080">
  <defs>
    <style>
      .cls-1 {
        fill: none;
      }

      .cls-1, .cls-2, .cls-3, .cls-4, .cls-5, .cls-6, .cls-7 {
        stroke: #000;
        stroke-linejoin: round;
      }

      .cls-1, .cls-2, .cls-3, .cls-5, .cls-6, .cls-7 {
        stroke-linecap: round;
        stroke-width: 18px;
      }

      .cls-2 {
        fill: #20ce00;
      }

      .cls-3 {
        fill: #cfcfcf;
      }

      .cls-4 {
        stroke-width: 10px;
      }

      .cls-4, .cls-6 {
        fill: #ffdd56;
      }

      .cls-5 {
        fill: #38fc14;
      }

      .cls-7 {
        fill: #000;
      }
    </style>
  </defs>
  <circle class="cls-3" cx="540" cy="540" r="449"/>
  <g>
    <line class="cls-1" x1="539.19" y1="371.64" x2="539.19" y2="909.34"/>
    <path class="cls-5" d="M389.84,349.1s5.53,42.79,46.82,68.5c41.3,25.71,102.73,24.6,102.73,24.6,0,0-.39-46.95-41.69-72.66-41.3-25.71-107.86-20.44-107.86-20.44Z"/>
    <path class="cls-5" d="M292.36,756.76s19.7,38.39,67.26,48.58c47.57,10.2,104.99-11.66,104.99-11.66,0,0-16.28-44.04-63.84-54.24-47.57-10.2-108.41,17.32-108.41,17.32Z"/>
    <path class="cls-5" d="M638.6,737.09s34.16,26.35,81.55,15.33c47.38-11.02,90.04-55.25,90.04-55.25,0,0-33.48-32.92-80.86-21.9-47.38,11.02-90.73,61.82-90.73,61.82Z"/>
    <path class="cls-5" d="M754.33,557.07s-26.47-20.41-63.18-11.87-69.76,42.8-69.76,42.8c0,0,25.94,25.51,62.65,16.97,36.71-8.54,70.29-47.89,70.29-47.89Z"/>
    <path class="cls-5" d="M660.63,441.29s-4.49,34.78-38.06,55.67c-33.56,20.89-83.49,19.99-83.49,19.99,0,0,.32-38.16,33.88-59.05s87.66-16.61,87.66-16.61Z"/>
    <path class="cls-5" d="M404.58,637.72s-27.77,21.41-66.27,12.46c-38.51-8.96-73.17-44.9-73.17-44.9,0,0,27.21-26.76,65.71-17.8,38.51,8.96,73.73,50.24,73.73,50.24Z"/>
    <path class="cls-5" d="M475.64,606.58s-32.7,2.01-52.61-23.88c-19.91-25.9-19.5-69.9-19.5-69.9,0,0,35.84-6.26,55.75,19.64,19.91,25.9,16.36,74.14,16.36,74.14Z"/>
    <path class="cls-7" d="M540,989c44.19,0,86.88-6.39,127.22-18.28-68.81-33.8-117.35-65.43-127.67-92.99-11.25,29.03-62.03,62.47-126.8,92.98,40.34,11.9,83.05,18.29,127.25,18.29Z"/>
    <line class="cls-1" x1="539.08" y1="778.62" x2="638.6" y2="738.79"/>
    <line class="cls-1" x1="539" y1="677.01" x2="404.77" y2="638.21"/>
    <line class="cls-1" x1="539" y1="832.52" x2="464.62" y2="793.71"/>
    <line class="cls-1" x1="539" y1="622.85" x2="621.49" y2="588.49"/>
    <line class="cls-2" x1="495.21" y1="660.61" x2="475.15" y2="602.12"/>
  </g>
  <path class="cls-6" d="M669.73,166.27c-4.14-.22-8.23-.17-12.25.12,35.16,7.03,60.76,38.97,58.8,75.83-2.15,40.46-36.69,71.53-77.16,69.38-36.86-1.96-65.91-30.79-69.17-66.5-.72,3.97-1.2,8.03-1.42,12.17-2.82,53.07,37.92,98.38,91,101.2,53.07,2.82,98.38-37.92,101.2-91,2.82-53.07-37.92-98.38-91-101.2Z"/>
  <path class="cls-4" d="M330.77,335.55c-30.06,7.9-52.25,35.26-52.25,67.85,0-32.58-22.19-59.95-52.25-67.85,30.06-7.9,52.25-35.29,52.25-67.85,0,32.56,22.19,59.95,52.25,67.85Z"/>
  <path class="cls-4" d="M235.73,516.96c-17.91,4.71-31.13,21-31.13,40.41,0-19.41-13.22-35.71-31.13-40.41,17.91-4.71,31.13-21.02,31.13-40.41,0,19.39,13.22,35.71,31.13,40.41Z"/>
  <path class="cls-4" d="M881.05,459.9c-17.91,4.71-31.13,21-31.13,40.41,0-19.41-13.22-35.71-31.13-40.41,17.91-4.71,31.13-21.02,31.13-40.41,0,19.39,13.22,35.71,31.13,40.41Z"/>
</svg>