<?xml version="1.0" encoding="UTF-8"?>
<svg id="Layer_1" data-name="Layer 1" xmlns="http://www.w3.org/2000/svg" viewBox="0 0 1080 1080">
  <defs>
    <style>
      .cls-1 {
        fill: none;
      }

      .cls-1, .cls-2, .cls-3, .cls-4, .cls-5 {
        stroke: #000;
        stroke-linejoin: round;
      }

      .cls-1, .cls-2, .cls-4, .cls-5 {
        stroke-linecap: round;
        stroke-width: 18px;
      }

      .cls-6 {
        fill: #000;
        stroke-width: 0px;
      }

      .cls-2 {
        fill: #cfcfcf;
      }

      .cls-3 {
        stroke-width: 10px;
      }

      .cls-3, .cls-5 {
        fill: #ffdd56;
      }

      .cls-4 {
        fill: #38fc14;
      }
    </style>
  </defs>
  <g>
    <g>
      <g>
        <rect class="cls-2" x="170.04" y="308.38" width="403.08" height="645.77" rx="40.6" ry="40.6" transform="translate(-156.35 123.47) rotate(-15.63)"/>
        <polygon class="cls-4" points="278 907.25 148.36 443.91 179.75 388.13 409.37 323.88 465.15 355.27 594.79 818.62 563.4 874.4 333.78 938.64 278 907.25"/>
        <circle class="cls-6" cx="136.16" cy="400.33" r="9.9"/>
        <circle class="cls-6" cx="452.95" cy="311.69" r="9.9"/>
        <circle class="cls-6" cx="290.2" cy="950.84" r="9.9"/>
        <circle class="cls-6" cx="606.99" cy="862.2" r="9.9"/>
      </g>
      <circle class="cls-5" cx="371.57" cy="631.26" r="119.22"/>
      <g>
        <g>
          <line class="cls-1" x1="312.41" y1="419.24" x2="319.03" y2="442.88"/>
          <line class="cls-1" x1="386.86" y1="418.81" x2="380.51" y2="442.53"/>
          <line class="cls-1" x1="450.63" y1="455.84" x2="433.18" y2="473.11"/>
          <line class="cls-1" x1="248.67" y1="457.4" x2="266.38" y2="474.4"/>
          <line class="cls-1" x1="213.11" y1="522.9" x2="237.02" y2="528.49"/>
        </g>
        <g>
          <line class="cls-1" x1="431.04" y1="843.21" x2="424.43" y2="819.56"/>
          <line class="cls-1" x1="494.9" y1="804.93" x2="477.16" y2="787.95"/>
          <line class="cls-1" x1="530.19" y1="740.19" x2="506.31" y2="734.48"/>
          <line class="cls-1" x1="356.75" y1="843.67" x2="363.07" y2="819.94"/>
          <line class="cls-1" x1="292.36" y1="806.13" x2="309.89" y2="788.94"/>
        </g>
      </g>
      <g>
        <path class="cls-1" d="M345.21,600.69c2.43,8.68-4.86,18.31-16.28,21.5-11.42,3.2-22.65-1.25-25.08-9.93"/>
        <path class="cls-1" d="M419.6,579.88c2.43,8.68-4.86,18.31-16.28,21.5-11.42,3.2-22.65-1.25-25.08-9.93"/>
      </g>
      <path class="cls-1" d="M422.56,654.97c3.58,12.81-11.93,28.34-34.65,34.7-22.72,6.36-44.04,1.13-47.63-11.68"/>
    </g>
    <g>
      <g>
        <rect class="cls-2" x="515.58" y="308.38" width="403.08" height="645.77" rx="40.6" ry="40.6" transform="translate(167.07 -149.89) rotate(13.49)"/>
        <polygon class="cls-4" points="501.05 826.82 613.31 358.96 667.88 325.51 899.73 381.14 933.18 435.71 820.93 903.57 766.36 937.02 534.5 881.39 501.05 826.82"/>
        <circle class="cls-6" cx="623.87" cy="314.95" r="9.9"/>
        <circle class="cls-6" cx="943.74" cy="391.7" r="9.9"/>
        <circle class="cls-6" cx="490.49" cy="870.83" r="9.9"/>
        <circle class="cls-6" cx="810.37" cy="947.58" r="9.9"/>
      </g>
      <path class="cls-5" d="M743.17,522.69c-4.67-1.12-9.35-1.93-14.01-2.44,38.63,15.42,61.12,57.25,51.12,98.89-10.97,45.71-56.92,73.88-102.63,62.91-41.64-9.99-68.72-49-64.92-90.43-1.66,4.38-3.06,8.91-4.18,13.59-14.39,59.96,22.56,120.23,82.52,134.62,59.96,14.39,120.23-22.56,134.62-82.52,14.39-59.96-22.56-120.23-82.52-134.62Z"/>
      <g>
        <path class="cls-3" d="M751.32,423.82c-20.28.44-38.52,14.42-43.48,35.09,4.96-20.67-4.95-41.41-22.82-51,20.28-.43,38.52-14.43,43.48-35.09-4.96,20.66,4.95,41.41,22.82,51Z"/>
        <path class="cls-3" d="M656.9,484.5c-12.08.26-22.95,8.59-25.9,20.9,2.95-12.31-2.95-24.67-13.6-30.38,12.08-.26,22.95-8.6,25.9-20.9-2.95,12.3,2.95,24.67,13.6,30.38Z"/>
        <path class="cls-3" d="M682.92,838.71c20.28-.44,38.52-14.42,43.48-35.09-4.96,20.67,4.95,41.41,22.82,51-20.28.43-38.52,14.43-43.48,35.09,4.96-20.66-4.95-41.41-22.82-51Z"/>
        <path class="cls-3" d="M777.34,778.03c12.08-.26,22.95-8.59,25.9-20.9-2.95,12.31,2.95,24.67,13.6,30.38-12.08.26-22.95,8.6-25.9,20.9,2.95-12.3-2.95-24.67-13.6-30.38Z"/>
      </g>
    </g>
  </g>
  <g>
    <g>
      <rect class="cls-2" x="285.32" y="92.91" width="509.33" height="816" rx="40.6" ry="40.6"/>
      <polygon class="cls-4" points="332.14 804.9 332.14 196.93 389.33 139.74 690.63 139.74 747.82 196.93 747.82 804.9 690.63 862.09 389.33 862.09 332.14 804.9"/>
      <circle class="cls-6" cx="332.14" cy="139.74" r="12.51"/>
      <circle class="cls-6" cx="747.82" cy="139.74" r="12.51"/>
      <circle class="cls-6" cx="332.14" cy="862.09" r="12.51"/>
      <circle class="cls-6" cx="747.82" cy="862.09" r="12.51"/>
    </g>
    <path class="cls-5" d="M514.86,592.13h-15.54c-3.86-20.96-5.78-37.47-5.78-49.52,0-52.77,16.38-91.99,49.16-117.65,32.77-25.66,53.73-44.03,62.89-55.12,9.15-11.08,13.74-24.58,13.74-40.48,0-19.03-8.31-35.66-24.94-49.88-16.63-14.21-37.47-21.32-62.53-21.32-23.38,0-42.65,5.96-57.83,17.89s-22.77,22.23-22.77,30.9c0,3.61,4.64,5.66,13.92,6.14,9.27.49,17.17,4.28,23.67,11.39,6.51,7.11,9.76,15.12,9.76,24.04,0,9.64-3.56,17.83-10.66,24.58-7.11,6.75-15.6,10.12-25.48,10.12-11.57,0-21.14-3.91-28.73-11.75-7.59-7.83-11.39-19.7-11.39-35.6,0-25.78,10.66-48.01,31.99-66.68,21.32-18.67,47.17-28.01,77.53-28.01,38.31,0,68.85,13.07,91.62,39.22,22.77,26.15,34.15,55.84,34.15,89.09,0,25.06-6.03,47.29-18.07,66.68-12.05,19.4-37.83,42.71-77.35,69.94-32.53,22.89-48.79,45.42-48.79,67.59,0,6.27.48,12.41,1.45,18.43ZM469.68,694.42c0-12.53,4.39-23.19,13.19-31.99,8.79-8.79,19.46-13.19,31.99-13.19s23.31,4.4,32.35,13.19c9.04,8.8,13.55,19.46,13.55,31.99s-4.46,23.62-13.37,32.53c-8.92,8.91-19.76,13.37-32.53,13.37s-23.19-4.52-31.99-13.55c-8.8-9.04-13.19-19.82-13.19-32.35Z"/>
  </g>
</svg>