<?xml version="1.0" encoding="UTF-8"?>
<svg id="Layer_1" data-name="Layer 1" xmlns="http://www.w3.org/2000/svg" viewBox="0 0 1080 1080">
  <defs>
    <style>
      .cls-1 {
        fill: none;
      }

      .cls-1, .cls-2, .cls-3, .cls-4, .cls-5, .cls-6 {
        stroke: #000;
        stroke-linecap: round;
        stroke-linejoin: round;
        stroke-width: 18px;
      }

      .cls-7 {
        stroke-width: 0px;
      }

      .cls-7, .cls-6 {
        fill: #000;
      }

      .cls-2 {
        fill: #20ce00;
      }

      .cls-3 {
        fill: #cfcfcf;
      }

      .cls-4 {
        fill: #38fc14;
      }

      .cls-5 {
        fill: #ffdd56;
      }
    </style>
  </defs>
  <g>
    <line class="cls-1" x1="690.45" y1="121.1" x2="690.45" y2="714.16"/>
    <path class="cls-4" d="M525.72,96.25s6.1,47.2,51.65,75.55c45.55,28.36,113.31,27.13,113.31,27.13,0,0-.43-51.78-45.98-80.14-45.55-28.36-118.97-22.54-118.97-22.54Z"/>
    <path class="cls-4" d="M418.21,545.88s21.73,42.34,74.19,53.58c52.46,11.24,115.8-12.86,115.8-12.86,0,0-17.95-48.58-70.42-59.82-52.46-11.24-119.57,19.1-119.57,19.1Z"/>
    <path class="cls-4" d="M800.09,524.18s37.68,29.06,89.94,16.9c52.26-12.16,99.31-60.93,99.31-60.93,0,0-36.92-36.31-89.18-24.15-52.26,12.16-100.07,68.18-100.07,68.18Z"/>
    <path class="cls-4" d="M927.74,325.62s-29.19-22.52-69.68-13.1c-40.49,9.42-76.94,47.21-76.94,47.21,0,0,28.61,28.13,69.09,18.71,40.49-9.42,77.53-52.83,77.53-52.83Z"/>
    <path class="cls-4" d="M824.39,197.92s-4.95,38.36-41.97,61.4c-37.02,23.05-92.09,22.05-92.09,22.05,0,0,.35-42.09,37.37-65.13,37.02-23.05,96.69-18.32,96.69-18.32Z"/>
    <path class="cls-4" d="M541.98,414.58s-30.63,23.62-73.1,13.74-80.71-49.52-80.71-49.52c0,0,30.01-29.51,72.48-19.63,42.47,9.88,81.33,55.41,81.33,55.41Z"/>
    <path class="cls-4" d="M620.35,380.23s-36.07,2.22-58.03-26.34c-21.96-28.56-21.51-77.09-21.51-77.09,0,0,39.53-6.9,61.49,21.66,21.96,28.56,18.05,81.78,18.05,81.78Z"/>
    <path class="cls-6" d="M691.34,802.02c48.74,0,95.83-7.05,140.32-20.17-75.9-37.28-129.44-72.17-140.81-102.56-12.41,32.02-68.41,68.9-139.86,102.55,44.5,13.13,91.6,20.18,140.35,20.18Z"/>
    <line class="cls-1" x1="690.33" y1="569.98" x2="800.09" y2="526.05"/>
    <line class="cls-1" x1="690.24" y1="457.92" x2="542.19" y2="415.11"/>
    <line class="cls-1" x1="690.24" y1="629.43" x2="608.2" y2="586.62"/>
    <line class="cls-1" x1="690.24" y1="398.18" x2="781.22" y2="360.28"/>
    <line class="cls-2" x1="641.94" y1="439.82" x2="619.81" y2="375.31"/>
  </g>
  <g>
    <rect class="cls-5" x="363.35" y="882.16" width="625.99" height="101.87" rx="21.26" ry="21.26"/>
    <rect class="cls-5" x="363.35" y="780.29" width="625.99" height="101.87" rx="21.26" ry="21.26"/>
  </g>
  <circle class="cls-5" cx="805.11" cy="563.36" r="32.9"/>
  <circle class="cls-5" cx="608.2" cy="629.43" r="32.9"/>
  <circle class="cls-5" cx="550.99" cy="457.92" r="32.9"/>
  <circle class="cls-5" cx="781.11" cy="400.41" r="32.9"/>
  <circle class="cls-5" cx="675.34" cy="304.58" r="32.9"/>
  <circle class="cls-5" cx="674.01" cy="466.2" r="32.9"/>
  <circle class="cls-5" cx="719.14" cy="207.55" r="32.9"/>
  <g>
    <circle class="cls-5" cx="283.24" cy="791.67" r="192.57"/>
    <circle class="cls-3" cx="283.24" cy="791.67" r="149.72"/>
    <path class="cls-7" d="M316.5,835.28c0-16.5-9.43-24.36-31.69-32.21l-9.69-3.4c-27.5-9.69-43.74-23.83-43.74-50.02s21.74-47.66,51.85-47.66c26.45,0,47.4,15.71,48.97,38.24-2.1,5.5-6.55,8.12-11.52,8.12-5.76,0-12.31-3.67-15.45-17.29l-4.45-19.9,13.62,9.43c-11-4.45-20.43-5.76-28.28-5.76-19.38,0-34.31,9.69-34.31,29.33,0,16.76,10.48,25.93,29.07,31.95l9.95,3.4c35.36,12.31,46.09,29.33,46.09,50.81,0,28.02-21.48,47.93-57.09,47.93-28.02,0-49.24-15.45-50.28-38.24,2.36-5.24,6.02-8.12,11.79-8.12,6.29,0,12.05,3.4,15.19,17.29l4.45,19.9-13.88-9.43c12.05,4.71,23.83,6.02,34.05,6.02,21.48,0,35.36-11,35.36-30.38ZM278.52,790.49h10.48v114.45h-10.48v-114.45ZM278.78,790.49v-112.09h10.48v112.09h-10.48Z"/>
  </g>
</svg>