<?xml version="1.0" encoding="UTF-8"?>
<svg id="Layer_1" data-name="Layer 1" xmlns="http://www.w3.org/2000/svg" viewBox="0 0 1080 1080">
  <defs>
    <style>
      .cls-1 {
        fill: none;
      }

      .cls-1, .cls-2, .cls-3, .cls-4 {
        stroke: #000;
        stroke-linecap: round;
        stroke-linejoin: round;
      }

      .cls-1, .cls-3, .cls-4 {
        stroke-width: 18px;
      }

      .cls-2 {
        fill: #ffdd56;
        stroke-width: 17.37px;
      }

      .cls-3 {
        fill: #fce68d;
      }

      .cls-4 {
        fill: #afacb0;
      }
    </style>
  </defs>
  <g>
    <g>
      <path class="cls-3" d="M194.65,943.22c1.26-12.41,1.07-31.03-3.6-49.39-3.97-15.63-12.13-29.88-23.38-41.42-60.87-62.43-88.42-81.95-88.42-121.44v-282.25c0-25.38,20.58-45.96,45.96-45.96h0c25.38,0,45.96,20.58,45.96,45.96v227.17s148.09,40.78,148.09,40.78l42.19,43c14.23,14.5,21.23,34.61,19.08,54.81l-8.67,81.42-177.19,47.32Z"/>
      <path class="cls-3" d="M240.26,773.42l-68.53-68.53c-18.71-18.71-18.71-49.03,0-67.74h0c18.71-18.71,49.03-18.71,67.74,0l113.81,113.81"/>
      <rect class="cls-4" x="170.81" y="916.96" width="247.82" height="60.37" rx="11.54" ry="11.54" transform="translate(-232.59 106.97) rotate(-14.83)"/>
    </g>
    <g>
      <path class="cls-3" d="M885.35,943.22c-1.26-12.41-1.07-31.03,3.6-49.39,3.97-15.63,12.13-29.88,23.38-41.42,60.87-62.43,88.42-81.95,88.42-121.44v-282.25c0-25.38-20.58-45.96-45.96-45.96h0c-25.38,0-45.96,20.58-45.96,45.96v227.17s-148.09,40.78-148.09,40.78l-42.19,43c-14.23,14.5-21.23,34.61-19.08,54.81l8.67,81.42,177.19,47.32Z"/>
      <path class="cls-3" d="M839.74,773.42l68.53-68.53c18.71-18.71,18.71-49.03,0-67.74h0c-18.71-18.71-49.03-18.71-67.74,0l-113.81,113.81"/>
      <rect class="cls-4" x="661.37" y="916.96" width="247.82" height="60.37" rx="11.54" ry="11.54" transform="translate(1302.01 2063.73) rotate(-165.17)"/>
    </g>
  </g>
  <g>
    <path class="cls-2" d="M809.6,497.74c-3.22,6.23-7.44,11.02-15.14,11.51-9.89.63-18.09-5.87-19.22-15.48-1.1-9.4,5.1-17.68,14.43-19.24,9.59-1.6,18,4.43,20.01,14.35.25,1.21.53,2.41.8,3.62l-.88,5.24Z"/>
    <path class="cls-2" d="M770.51,572.02c-5.65,30.25-19.77,59.48-38.96,86.01-14.04,19.41-29.85,37.6-45.58,55.73-25.15,29-62.66,29.23-91.56,11.3-11.64-7.22-21.51-16.26-27.68-28.63-8.32-16.68-8.6-33.9,2.99-48.6,14.61-18.54,18.76-39.37,17.44-61.7-.92-15.44-3.17-30.89-6.11-46.09-3.48-17.97-5.4-35.75.42-53.41,8.54-25.93,27.49-40.31,53.49-46.24,49.32-11.24,105.28,14.75,126.97,58.94,11,22.41,12.88,46.01,8.58,72.68Z"/>
    <path class="cls-2" d="M608.45,379.64c16.8,2.86,28.93,19.79,26.21,36.58-2.78,17.17-20.54,30.14-37.22,27.18-16.84-2.99-28.59-20.28-25.55-37.6,3.01-17.13,19.65-29.04,36.56-26.16Z"/>
    <path class="cls-2" d="M749.25,415.47c-2.03,12.74-13.7,21.21-26.42,19.18-13.78-2.2-22.12-14.11-19.79-28.27,2-12.2,14.15-20.57,27.01-18.6,13.04,1.99,21.38,14.02,19.2,27.7Z"/>
    <path class="cls-2" d="M669.28,427.47c-16.2-2.81-25.87-16.76-22.66-33.17,2.99-15.28,16.43-22.95,32.04-21.03,14.63,1.79,24.4,16.55,21.86,31.25-2.56,14.84-16.97,25.42-31.24,22.94Z"/>
    <path class="cls-2" d="M787.09,448.66c-1.88,11.44-12.19,19.07-23.37,17.29-10.66-1.7-18.83-13.46-16.95-24.39,1.84-10.65,12.83-18.46,23.53-16.72,11.05,1.8,18.64,12.56,16.78,23.83Z"/>
  </g>
  <g>
    <path class="cls-2" d="M279.39,414.84c3.22,6.23,7.44,11.02,15.14,11.51,9.89.63,18.09-5.87,19.22-15.48,1.1-9.4-5.1-17.68-14.43-19.24-9.59-1.6-18,4.43-20.01,14.35-.25,1.21-.53,2.41-.8,3.62.29,1.75.59,3.5.88,5.24Z"/>
    <path class="cls-2" d="M318.48,489.11c5.65,30.25,19.77,59.48,38.96,86.01,14.04,19.41,29.85,37.6,45.58,55.73,25.15,29,62.66,29.23,91.56,11.3,11.64-7.22,21.51-16.26,27.68-28.63,8.32-16.68,8.6-33.9-2.99-48.6-14.61-18.54-18.76-39.37-17.44-61.7.92-15.44,3.17-30.89,6.11-46.09,3.48-17.97,5.4-35.75-.42-53.41-8.54-25.93-27.49-40.31-53.49-46.24-49.32-11.24-105.28,14.75-126.97,58.94-11,22.41-12.88,46.01-8.58,72.68Z"/>
    <path class="cls-2" d="M480.54,296.74c-16.8,2.86-28.93,19.79-26.21,36.58,2.78,17.17,20.54,30.14,37.22,27.18,16.84-2.99,28.59-20.28,25.55-37.6-3.01-17.13-19.65-29.04-36.56-26.16Z"/>
    <path class="cls-2" d="M339.74,332.56c2.03,12.74,13.7,21.21,26.42,19.18,13.78-2.2,22.12-14.11,19.79-28.27-2-12.2-14.15-20.57-27.01-18.6-13.04,1.99-21.38,14.02-19.2,27.7Z"/>
    <path class="cls-2" d="M419.71,344.57c16.2-2.81,25.87-16.76,22.66-33.17-2.99-15.28-16.43-22.95-32.04-21.03-14.63,1.79-24.4,16.55-21.86,31.25,2.56,14.84,16.97,25.42,31.24,22.94Z"/>
    <path class="cls-2" d="M301.89,365.75c1.88,11.44,12.19,19.07,23.37,17.29,10.66-1.7,18.83-13.46,16.95-24.39-1.84-10.65-12.83-18.46-23.53-16.72-11.05,1.8-18.64,12.56-16.78,23.83Z"/>
  </g>
  <g>
    <line class="cls-1" x1="539.25" y1="74.52" x2="539.25" y2="140.4"/>
    <line class="cls-1" x1="731.9" y1="127.25" x2="698.36" y2="183.94"/>
    <line class="cls-1" x1="869.91" y1="269.02" x2="812.33" y2="301.03"/>
    <line class="cls-1" x1="346.97" y1="127.03" x2="380.45" y2="183.76"/>
    <line class="cls-1" x1="207.74" y1="270.56" x2="265.46" y2="302.3"/>
  </g>
</svg>