<?xml version="1.0" encoding="UTF-8"?>
<svg id="Layer_1" data-name="Layer 1" xmlns="http://www.w3.org/2000/svg" viewBox="0 0 1080 1080">
  <defs>
    <style>
      .cls-1 {
        fill: #000;
        stroke-width: 0px;
      }

      .cls-2 {
        fill: #cfcfcf;
      }

      .cls-2, .cls-3, .cls-4 {
        stroke: #000;
        stroke-linecap: round;
        stroke-linejoin: round;
        stroke-width: 18px;
      }

      .cls-3 {
        fill: #fce68d;
      }

      .cls-4 {
        fill: #ffdd56;
      }
    </style>
  </defs>
  <circle class="cls-4" cx="540" cy="540" r="448.06"/>
  <g>
    <g>
      <path class="cls-3" d="M250.56,699.9s53.99-5.2,61.98,0c8,5.2,50.93,98.53,54.44,107.97,3.64,9.8-1.83,28.03-20.69,18.99-18.76-8.98-72.78-59.78-72.78-59.78l-33.76-18,10.8-49.19Z"/>
      <path class="cls-3" d="M227.37,741.08s47.19-8,53.19-5.2c6,2.8,58.31,78.4,63.58,95.97,2.7,9,1.6,27.69-4.2,31.89-4.86,3.52-30.19,10.7-38.05-12.7-6.03-17.95-97.72-61.48-97.72-61.48l23.19-48.49Z"/>
      <path class="cls-3" d="M218.57,779.67s33.51-7.69,44.74-.07c19.84,13.47,52.03,72.85,53.03,96.64.57,13.61-3.26,28.24-36.39,15-40.8-16.31-68.38-56.19-68.38-56.19l7-55.39Z"/>
    </g>
    <path class="cls-3" d="M223.44,815.06s35.21,11.93,49.61,5c14.4-6.93,60.97-60.03,75.78-64.18,19.99-5.6,23.57.02,24.5,6.47,1.33,9.26-37.23,86.13-87.71,128.96-32.05,27.2-81.13,50.19-113,85.9-5.09,5.71-13.84,6.18-19.43.96l-73.2-68.56c-3.99-3.74-5.34-9.5-3.42-14.62,10.02-26.73,40.82-108.3,47.83-119.31,8.4-13.2,95.87-106.17,122.32-123.57,26.45-17.4,87.43-58.58,104.42-60.99,8.52-1.21,15.93,18.65,11.45,33.15-6.45,20.84-79.23,53.24-92.83,69.23-9.53,11.21-36.12,71.05-32.92,86.64,3.2,15.6,14.43,40.27,14.43,40.27"/>
  </g>
  <g>
    <g>
      <path class="cls-2" d="M688.21,349.33s34.22,49.39,41.96,55.83c7.73,6.44,46.88,30.24,53.58,28.07,9.6-3.1,13.59-22.87-2.35-40.32-14.72-16.11-39.64-21.27-39.64-21.27l-15.59-46.51-37.97,24.2Z"/>
      <path class="cls-2" d="M716.42,339.42l25.19,30.94s60.53,6.46,64.82,3.88c4.3-2.58,3.44-24.92-4.51-29.23-7.95-4.3-22.93-11.02-28.09-11.81-4.35-.66-44.96-.88-44.96-.88l-12.46,7.09Z"/>
    </g>
    <g>
      <path class="cls-2" d="M714.06,277.55s29.22,9.03,32.08,23.77c2.86,14.75-12.33,36.38-24.35,43.25-12.02,6.87-36.66,6.03-45.26-.86-7.44-5.97,18.3-58.15,37.52-66.17Z"/>
      <path class="cls-2" d="M673.31,354.46c.89-5.92,3.51-8.59,18.98-8.88,15.47-.29,23.49,5.96,25.21,15.61s7.45,32.31,4.3,42.82c-1.24,4.13-29.94,34.03-36.19,24.11-5.77-9.14-13.68-64.4-12.29-73.67Z"/>
      <path class="cls-2" d="M688.21,433.74c-3.64-11.27,28.78-27.93,34.51-23.85,5.73,4.08,28.82,17.63,37.95,36.31,6.41,13.11,9.2,21.95-4.51,34.59-6.71,3.06-23.72-10.34-39.96-23.2-13.38-10.6-26.9-20.45-27.99-23.85Z"/>
    </g>
    <g>
      <path class="cls-2" d="M707.24,247.2s1.47-13.05,32.93-29.37c16.71-8.67,86.28-44.51,130.28-74.55,38.82-26.49,53.16-48.36,59.08-44.69,8.59,18.37,6.02,40.82,16.67,60.67,33.48,18.43,60.79,20.74,57.87,29.13-2.03,5.84-26.93,22.42-50.15,47.05-31.44,33.34-62.08,76.32-66.29,78.73-7.3,4.19-38.67-18.58-45.97-18.58-7.3,0-37.32,17.58-59.37,14.47-69.1-9.75-75.05-62.87-75.05-62.87Z"/>
      <path class="cls-2" d="M888.5,132.11s54.46,21.73,57.63,28.16c3.17,6.43,19.71,62.4,19.71,62.4"/>
      <path class="cls-2" d="M864.21,147.68s35.04,12.79,54.8,33.2c20.99,21.67,26.55,62.05,26.28,62.7"/>
      <circle class="cls-4" cx="946.21" cy="159.27" r="29.3"/>
    </g>
    <g>
      <path class="cls-2" d="M834.92,280.56c16.48-14.55,50.57-4.84,57.23,17.83,7.52,25.6-30.82,71.73-30.08,82.28s5.16,43.65.76,57.06-27.99,16.6-41.57-7.6c-14.26-25.42-3.22-68.32-1.93-80.8,1.29-12.49-7.52-48.36,15.6-68.77Z"/>
      <path class="cls-2" d="M816.57,366.85s6.62-13.59,24.95-7.19c18.33,6.4,20.77,18.65,20.77,18.65"/>
    </g>
    <g>
      <path class="cls-2" d="M647.89,266.81s57.15-33.51,66.28-33.08c22.1,1.04,30.22,22.52,23.95,37.09-6.96,16.19-51.11,36.18-63.14,39.08-12.03,2.9-48.14-32.78-27.09-43.09Z"/>
      <path class="cls-2" d="M589.67,306.99s41.32-31.18,52.63-33.3c17.19-3.22,31.08,29.93,23.63,40.25-4.9,6.78-42.62,30.97-50.92,32.58-8.81,1.72-40.17-27.5-25.35-39.53Z"/>
      <path class="cls-2" d="M575.92,322.02s10.1-10.1,16.97-3.01c6.87,7.09,23.2,19.42,15.04,34.74-8.16,15.32-30.16,41.11-35.88,45.18-12.68,9.02-35.82,8.15-31.53-12.91,4.3-21.05,35.4-64,35.4-64Z"/>
    </g>
    <g>
      <circle class="cls-1" cx="697.09" cy="368.94" r="8.37"/>
      <circle class="cls-1" cx="946.21" cy="159.27" r="11.47"/>
      <circle class="cls-1" cx="853.38" cy="319.02" r="8.91"/>
      <circle class="cls-1" cx="636.85" cy="304.9" r="8.75"/>
      <circle class="cls-1" cx="711.79" cy="261.63" r="8.99"/>
    </g>
  </g>
</svg>