<?xml version="1.0" encoding="UTF-8"?>
<svg id="Layer_1" data-name="Layer 1" xmlns="http://www.w3.org/2000/svg" viewBox="0 0 1080 1080">
  <defs>
    <style>
      .cls-1 {
        fill: none;
      }

      .cls-1, .cls-2, .cls-3, .cls-4, .cls-5 {
        stroke: #000;
        stroke-linecap: round;
        stroke-linejoin: round;
        stroke-width: 18px;
      }

      .cls-2 {
        fill: #cfcfcf;
      }

      .cls-3 {
        fill: #fce68d;
      }

      .cls-4 {
        fill: #ffdd56;
      }

      .cls-5 {
        fill: #000;
      }
    </style>
  </defs>
  <g>
    <path class="cls-3" d="M957.96,945.53c-4.41-11.66-9.02-29.7-9.24-48.65-.19-16.12,4.02-32,11.93-46.05,42.73-76,64.33-101.96,54.16-140.12l-72.7-272.73c-6.54-24.53-31.72-39.11-56.24-32.57h0c-24.53,6.54-39.11,31.72-32.57,56.24l58.51,219.51-132.59,77.55-29.69,52.42c-10.01,17.68-11.6,38.91-4.31,57.88l29.35,76.44,183.4.09Z"/>
    <path class="cls-3" d="M870.15,793.2l48.57-83.87c13.26-22.89,5.45-52.2-17.45-65.45h0c-22.89-13.26-52.2-5.45-65.45,17.45l-80.66,139.28"/>
    <rect class="cls-2" x="738.37" y="944.91" width="247.82" height="60.37" rx="11.54" ry="11.54" transform="translate(1726.21 1948.74) rotate(179.9)"/>
  </g>
  <g>
    <path class="cls-3" d="M138.58,945.53c4.41-11.66,9.02-29.7,9.24-48.65.19-16.12-4.02-32-11.93-46.05-42.73-76-64.33-101.96-54.16-140.12l72.7-272.73c6.54-24.53,31.72-39.11,56.24-32.57h0c24.53,6.54,39.11,31.72,32.57,56.24l-58.51,219.51,132.59,77.55,29.69,52.42c10.01,17.68,11.6,38.91,4.31,57.88l-29.35,76.44-183.4.09Z"/>
    <path class="cls-3" d="M226.38,793.2l-48.57-83.87c-13.26-22.89-5.45-52.2,17.45-65.45h0c22.89-13.26,52.2-5.45,65.45,17.45l80.66,139.28"/>
    <rect class="cls-2" x="110.35" y="944.91" width="247.82" height="60.37" rx="11.54" ry="11.54" transform="translate(1.65 -.39) rotate(.1)"/>
  </g>
  <g>
    <g>
      <line class="cls-1" x1="539.25" y1="74.52" x2="539.25" y2="140.4"/>
      <line class="cls-1" x1="731.9" y1="127.25" x2="698.36" y2="183.94"/>
      <line class="cls-1" x1="869.91" y1="269.02" x2="812.33" y2="301.03"/>
      <line class="cls-1" x1="346.97" y1="127.03" x2="380.45" y2="183.76"/>
      <line class="cls-1" x1="207.74" y1="270.56" x2="265.46" y2="302.3"/>
    </g>
    <g>
      <path class="cls-2" d="M478.16,790.16h122.18v45.98c0,26.63-21.62,48.26-48.26,48.26h-25.67c-26.63,0-48.26-21.62-48.26-48.26v-45.98h0Z"/>
      <path class="cls-2" d="M762.53,509.71c0-123.15-99.7-223.01-222.79-223.28-122.52-.26-221.83,97.22-223.73,219.73-1.28,82.11,41.78,154.27,106.79,194.09,15.29,9.36,24.7,25.9,24.7,43.83v55.76c0,14.75,11.96,26.71,26.71,26.71h130.09c14.75,0,26.71-11.96,26.71-26.71v-55.76c0-17.96,9.46-34.49,24.77-43.88,64.03-39.25,106.75-109.88,106.75-190.49Z"/>
      <line class="cls-2" x1="448.22" y1="773.06" x2="630.29" y2="773.06"/>
      <g>
        <line class="cls-1" x1="539.91" y1="480.64" x2="539.91" y2="622.56"/>
        <path class="cls-4" d="M420.36,406.21s4.42,34.21,37.43,54.76c33.01,20.55,82.12,19.67,82.12,19.67,0,0-.31-37.53-33.33-58.08-33.01-20.55-86.22-16.34-86.22-16.34Z"/>
        <path class="cls-4" d="M636.83,419.75s-3.59,27.8-30.42,44.5c-26.83,16.7-66.74,15.98-66.74,15.98,0,0,.25-30.5,27.08-47.21,26.83-16.7,70.08-13.28,70.08-13.28Z"/>
        <path class="cls-5" d="M447.56,626.58h184.7c-48.88-22.04-85.08-42.73-91.64-60.25-7.36,18.98-47.13,41.58-93.06,60.25Z"/>
      </g>
    </g>
  </g>
</svg>