<?xml version="1.0" encoding="UTF-8"?>
<svg id="Layer_1" data-name="Layer 1" xmlns="http://www.w3.org/2000/svg" viewBox="0 0 1080 1080">
  <defs>
    <style>
      .cls-1 {
        fill: #ffdd56;
        stroke-width: 17.37px;
      }

      .cls-1, .cls-2, .cls-3 {
        stroke: #000;
        stroke-linecap: round;
        stroke-linejoin: round;
      }

      .cls-2 {
        fill: #cfcfcf;
      }

      .cls-2, .cls-3 {
        stroke-width: 18px;
      }

      .cls-3 {
        fill: #38fc14;
      }
    </style>
  </defs>
  <path class="cls-2" d="M330.71,435.45c48.07-48.07,364.07-51.21,415.28,0,47.21,47.21-77.67,191.6-180.28,548.15-7.29,25.33-43.29,25.23-50.43-.15-100.7-357.95-228.89-503.69-184.57-548.01Z"/>
  <circle class="cls-1" cx="540" cy="215.47" r="138.01"/>
  <circle class="cls-3" cx="540" cy="535" r="114.78"/>
  <g>
    <path class="cls-2" d="M614.62,981.47c25.3-83,59.6-165.97,101.55-246.75,8.06-15.51,23.3-26,40.65-28.05,40.43-4.79,83.73,2.7,108.24,19.29-77.03,53.67-149.44,141.56-228.95,265.41-7.49,11.67-25.54,3.36-21.49-9.9Z"/>
    <circle class="cls-1" cx="803.81" cy="621.05" r="50.55"/>
  </g>
  <g>
    <path class="cls-2" d="M465.38,981.47c-25.3-83-59.6-165.97-101.55-246.75-8.06-15.51-23.3-26-40.65-28.05-40.43-4.79-83.73,2.7-108.24,19.29,77.03,53.67,149.44,141.56,228.95,265.41,7.49,11.67,25.54,3.36,21.49-9.9Z"/>
    <circle class="cls-1" cx="276.19" cy="621.05" r="50.55"/>
  </g>
  <path class="cls-2" d="M330.71,435.45s177.65,193.91,165.08,228.65c-8.62,23.84-56.48.62-85.64-16.29-14.72-8.54-27.39-20.96-33.76-36.73-21.02-52.01-72.76-145.06-45.68-175.63Z"/>
  <path class="cls-2" d="M748.61,438.34s-177.65,193.91-165.08,228.65c8.62,23.84,56.48.62,85.64-16.29,14.72-8.54,27.39-20.96,33.76-36.73,21.02-52.01,72.76-145.06,45.68-175.63Z"/>
</svg>