<?xml version="1.0" encoding="UTF-8"?>
<svg id="Layer_1" data-name="Layer 1" xmlns="http://www.w3.org/2000/svg" viewBox="0 0 1080 1080">
  <defs>
    <style>
      .cls-1 {
        fill: none;
      }

      .cls-1, .cls-2, .cls-3 {
        stroke: #000;
        stroke-linecap: round;
        stroke-linejoin: round;
        stroke-width: 18px;
      }

      .cls-4 {
        fill: #000;
        stroke-width: 0px;
      }

      .cls-2 {
        fill: #cfcfcf;
      }

      .cls-3 {
        fill: #ffdd56;
      }
    </style>
  </defs>
  <path class="cls-2" d="M940.04,764.54l43.31-106.68c4.33-10.67-.81-22.83-11.47-27.16l-39.17-15.9c-8.83-3.59-13.96-12.74-12.64-22.18,5.19-37.26,4.74-74.56-.86-110.81-1.45-9.37,3.78-18.5,12.52-22.19l38.84-16.41c10.61-4.48,15.57-16.71,11.09-27.32l-44.81-106.06c-4.48-10.61-16.71-15.57-27.32-11.09l-38.84,16.41c-8.73,3.69-18.93,1.08-24.63-6.49-22.08-29.28-48.52-55.6-78.85-77.86-7.68-5.64-10.67-15.69-7.09-24.52l15.9-39.17c4.33-10.67-.81-22.83-11.47-27.16l-106.68-43.31c-10.67-4.33-22.83.81-27.16,11.47l-15.9,39.17c-3.59,8.83-12.74,13.96-22.18,12.64-37.26-5.19-74.56-4.74-110.81.86-9.37,1.45-18.5-3.78-22.19-12.52l-16.41-38.84c-4.48-10.61-16.71-15.57-27.32-11.09l-106.06,44.81c-10.61,4.48-15.57,16.71-11.09,27.32l16.41,38.84c3.69,8.73,1.08,18.93-6.49,24.63-29.28,22.08-55.6,48.52-77.86,78.85-5.64,7.68-15.69,10.67-24.52,7.09l-39.17-15.9c-10.67-4.33-22.83.81-27.16,11.47l-43.31,106.68c-4.33,10.67.81,22.83,11.47,27.16l39.17,15.9c8.83,3.59,13.96,12.74,12.64,22.18-5.19,37.26-4.74,74.56.86,110.81,1.45,9.37-3.78,18.5-12.52,22.19l-38.84,16.41c-10.61,4.48-15.57,16.71-11.09,27.32l44.81,106.06c4.48,10.61,16.71,15.57,27.32,11.09l38.84-16.41c8.73-3.69,18.93-1.08,24.63,6.49,22.08,29.28,48.52,55.6,78.85,77.86,7.68,5.64,10.67,15.69,7.09,24.52l-15.9,39.17c-4.33,10.67.81,22.83,11.47,27.16l106.68,43.31c10.67,4.33,22.83-.81,27.16-11.47l15.9-39.17c3.59-8.83,12.74-13.96,22.18-12.64,37.26,5.19,74.56,4.74,110.81-.86,9.37-1.45,18.5,3.78,22.19,12.52l16.41,38.84c4.48,10.61,16.71,15.57,27.32,11.09l106.06-44.81c10.61-4.48,15.57-16.71,11.09-27.32l-16.41-38.84c-3.69-8.73-1.08-18.93,6.49-24.63,29.28-22.08,55.6-48.52,77.86-78.85,5.64-7.68,15.69-10.67,24.52-7.09l39.17,15.9c10.67,4.33,22.83-.81,27.16-11.47Z"/>
  <circle class="cls-3" cx="540" cy="540" r="324.4"/>
  <g>
    <polyline class="cls-1" points="511.48 673.9 540 540 669.92 714.17"/>
    <polygon class="cls-4" points="548.79 671.11 500.72 724.44 478.56 656.15 548.79 671.11"/>
    <polygon class="cls-4" points="634.86 727.21 700.81 755.58 692.41 684.28 634.86 727.21"/>
  </g>
  <circle class="cls-3" cx="540" cy="540" r="27.21"/>
  <path class="cls-1" d="M448.1,649.17c-31.06-26.18-50.8-65.37-50.8-109.17,0-78.81,63.89-142.7,142.7-142.7s142.7,63.89,142.7,142.7c0,30.72-9.71,59.18-26.23,82.47"/>
  <path class="cls-1" d="M490.49,759.97c-35.67-7.99-68.14-24.44-95.21-47.13-49.34-41.35-80.71-103.44-80.71-172.85,0-124.5,100.93-225.43,225.43-225.43s225.43,100.93,225.43,225.43c0,52.09-17.67,100.05-47.34,138.22"/>
</svg>