<?xml version="1.0" encoding="UTF-8"?>
<svg id="Layer_1" data-name="Layer 1" xmlns="http://www.w3.org/2000/svg" viewBox="0 0 1080 1080">
  <defs>
    <style>
      .cls-1 {
        fill: #cfcfcf;
      }

      .cls-1, .cls-2 {
        stroke: #000;
        stroke-linecap: round;
        stroke-linejoin: round;
        stroke-width: 18px;
      }

      .cls-2 {
        fill: #ffdd56;
      }
    </style>
  </defs>
  <g>
    <rect class="cls-1" x="214.79" y="705.65" width="650.42" height="235.16"/>
    <rect class="cls-1" x="180.07" y="619.09" width="719.87" height="89.1"/>
    <path class="cls-1" d="M216.88,911.58h645.82c33.35,0,60.43,27.08,60.43,60.43v29.94H156.44v-29.94c0-33.35,27.08-60.43,60.43-60.43Z"/>
    <path class="cls-1" d="M236.34,677.47c0,32.24-26.14,58.38-58.38,58.38-32.24,0-58.38-26.14-58.38-58.38,0-32.24,26.14-58.38,58.38-58.38h62.59"/>
    <path class="cls-1" d="M843.66,677.47c0,32.24,26.14,58.38,58.38,58.38s58.38-26.14,58.38-58.38-26.14-58.38-58.38-58.38h-62.59"/>
    <g>
      <rect class="cls-1" x="267.06" y="751.66" width="51.42" height="114.58"/>
      <rect class="cls-1" x="390.67" y="751.66" width="51.42" height="114.58"/>
      <rect class="cls-1" x="514.29" y="751.66" width="51.42" height="114.58"/>
      <rect class="cls-1" x="637.9" y="751.66" width="51.42" height="114.58"/>
      <rect class="cls-1" x="761.52" y="751.66" width="51.42" height="114.58"/>
    </g>
  </g>
  <g>
    <path class="cls-1" d="M242.46,424.69h125.81v62.53c0,19.04-15.46,34.5-34.5,34.5h-56.8c-19.04,0-34.5-15.46-34.5-34.5v-62.53h0Z" transform="translate(584.63 -15.86) rotate(62.56)"/>
    <path class="cls-1" d="M710.66,521.83c112.54-58.43,156.5-196.94,98.33-309.55-57.9-112.09-194.11-156.59-306.96-100.2-75.65,37.8-121.15,111.38-126.7,189.69-1.3,18.41-11.95,34.87-28.33,43.37l-50.96,26.46c-13.48,7-18.73,23.6-11.73,37.08l61.73,118.89c7,13.48,23.6,18.73,37.08,11.73l50.96-26.46c16.41-8.52,36.01-7.72,51.85,1.82,66.25,39.89,151.07,45.42,224.74,7.17Z"/>
    <path class="cls-2" d="M667.01,486.81l40.12-20.83c4.01-2.08,5.58-7.02,3.49-11.04l-7.65-14.73c-1.72-3.32-.92-7.36,1.87-9.85,11.05-9.81,20.42-21.07,27.98-33.32,1.96-3.17,5.84-4.56,9.39-3.44l15.78,5c4.31,1.36,8.91-1.02,10.27-5.33l13.64-43.1c1.36-4.31-1.02-8.91-5.33-10.27l-15.78-5c-3.55-1.12-5.93-4.5-5.7-8.22.86-14.37-.33-28.97-3.72-43.35-.86-3.64.81-7.41,4.13-9.13l14.73-7.65c4.01-2.08,5.58-7.02,3.49-11.04l-20.83-40.12c-2.08-4.01-7.02-5.58-11.04-3.49l-14.73,7.65c-3.32,1.72-7.36.92-9.85-1.87-9.81-11.05-21.07-20.42-33.32-27.98-3.17-1.96-4.56-5.84-3.44-9.39l5-15.78c1.36-4.31-1.02-8.91-5.33-10.27l-43.1-13.64c-4.31-1.36-8.91,1.02-10.27,5.33l-5,15.78c-1.12,3.55-4.5,5.93-8.22,5.7-14.37-.86-28.97.33-43.35,3.72-3.64.86-7.41-.81-9.13-4.13l-7.65-14.73c-2.08-4.01-7.02-5.58-11.04-3.49l-40.12,20.83c-4.01,2.08-5.58,7.02-3.49,11.04l7.65,14.73c1.72,3.32.92,7.36-1.87,9.85-11.05,9.81-20.42,21.07-27.98,33.32-1.96,3.17-5.84,4.56-9.39,3.44l-15.78-5c-4.31-1.36-8.91,1.02-10.27,5.33l-13.64,43.1c-1.36,4.31,1.02,8.91,5.33,10.27l15.78,5c3.55,1.12,5.93,4.5,5.7,8.22-.86,14.37.33,28.97,3.72,43.35.86,3.64-.81,7.41-4.13,9.13l-14.73,7.65c-4.01,2.08-5.58,7.02-3.49,11.04l20.83,40.12c2.08,4.01,7.02,5.58,11.04,3.49l14.73-7.65c3.32-1.72,7.36-.92,9.85,1.87,9.81,11.05,21.07,20.42,33.32,27.98,3.17,1.96,4.56,5.84,3.44,9.39l-5,15.78c-1.36,4.31,1.02,8.91,5.33,10.27l43.1,13.64c4.31,1.36,8.91-1.02,10.27-5.33l5-15.78c1.12-3.55,4.5-5.93,8.22-5.7,14.37.86,28.97-.33,43.35-3.72,3.64-.86,7.41.81,9.13,4.13l7.65,14.73c2.08,4.01,7.02,5.58,11.04,3.49Z"/>
    <circle class="cls-1" cx="604.72" cy="317.78" r="92.22"/>
    <line class="cls-1" x1="320.85" y1="359.55" x2="407.24" y2="525.93"/>
  </g>
</svg>