<?xml version="1.0" encoding="UTF-8"?>
<svg id="Layer_1" data-name="Layer 1" xmlns="http://www.w3.org/2000/svg" viewBox="0 0 1080 1080">
  <defs>
    <style>
      .cls-1 {
        fill: none;
      }

      .cls-1, .cls-2, .cls-3, .cls-4, .cls-5, .cls-6 {
        stroke: #000;
        stroke-linejoin: round;
      }

      .cls-1, .cls-2, .cls-4, .cls-5, .cls-6 {
        stroke-linecap: round;
        stroke-width: 18px;
      }

      .cls-2 {
        fill: #cfcfcf;
      }

      .cls-3 {
        stroke-width: 10px;
      }

      .cls-3, .cls-5 {
        fill: #ffdd56;
      }

      .cls-4 {
        fill: #38fc14;
      }

      .cls-6 {
        fill: #000;
      }
    </style>
  </defs>
  <circle class="cls-2" cx="540" cy="540" r="449"/>
  <g>
    <line class="cls-1" x1="538.19" y1="703.4" x2="538.19" y2="975.57"/>
    <path class="cls-4" d="M308.93,560.67s8.47,65.6,71.78,105.01c63.31,39.41,157.48,37.71,157.48,37.71,0,0-.6-71.98-63.91-111.39-63.31-39.41-165.36-31.33-165.36-31.33Z"/>
    <path class="cls-4" d="M724.05,586.64s-6.89,53.31-58.34,85.34c-51.45,32.03-127.99,30.65-127.99,30.65,0,0,.49-58.5,51.94-90.53,51.45-32.03,134.39-25.47,134.39-25.47Z"/>
    <path class="cls-6" d="M540,989c44.19,0,86.88-6.39,127.22-18.28-68.81-33.8-117.35-65.43-127.67-92.99-11.25,29.03-62.03,62.47-126.8,92.98,40.34,11.9,83.05,18.29,127.25,18.29Z"/>
  </g>
  <g>
    <g>
      <line class="cls-1" x1="651.35" y1="423.61" x2="683.35" y2="391.61"/>
      <line class="cls-1" x1="583.37" y1="304.4" x2="627.21" y2="293.16"/>
      <line class="cls-1" x1="585.2" y1="168.49" x2="628.72" y2="180.91"/>
      <line class="cls-1" x1="770.27" y1="491.51" x2="781.57" y2="447.69"/>
      <line class="cls-1" x1="907.64" y1="489.42" x2="895.01" y2="445.96"/>
    </g>
    <path class="cls-5" d="M707.37,123.24c-58.22,68-55.24,170.39,8.96,234.86,65.23,65.5,169.11,68.28,237.58,7.58-46.43-110.1-135.51-197.81-246.54-242.44Z"/>
  </g>
  <path class="cls-3" d="M330.77,335.55c-30.06,7.9-52.25,35.26-52.25,67.85,0-32.58-22.19-59.95-52.25-67.85,30.06-7.9,52.25-35.29,52.25-67.85,0,32.56,22.19,59.95,52.25,67.85Z"/>
  <path class="cls-3" d="M235.73,516.96c-17.91,4.71-31.13,21-31.13,40.41,0-19.41-13.22-35.71-31.13-40.41,17.91-4.71,31.13-21.02,31.13-40.41,0,19.39,13.22,35.71,31.13,40.41Z"/>
</svg>