<?xml version="1.0" encoding="UTF-8"?>
<svg id="Layer_1" data-name="Layer 1" xmlns="http://www.w3.org/2000/svg" viewBox="0 0 1080 1080">
  <defs>
    <style>
      .cls-1 {
        fill: none;
      }

      .cls-1, .cls-2, .cls-3, .cls-4, .cls-5 {
        stroke: #000;
        stroke-linejoin: round;
      }

      .cls-1, .cls-2, .cls-4, .cls-5 {
        stroke-linecap: round;
        stroke-width: 18px;
      }

      .cls-6 {
        fill: #000;
        stroke-width: 0px;
      }

      .cls-2 {
        fill: #cfcfcf;
      }

      .cls-3 {
        stroke-width: 10px;
      }

      .cls-3, .cls-5 {
        fill: #ffdd56;
      }

      .cls-4 {
        fill: #38fc14;
      }
    </style>
  </defs>
  <g>
    <g>
      <rect class="cls-2" x="187.98" y="132" width="509.33" height="816" rx="40.6" ry="40.6" transform="translate(-129.13 139.24) rotate(-15.63)"/>
      <polygon class="cls-4" points="324.4 888.74 160.58 303.26 200.25 232.78 490.4 151.59 560.88 191.26 724.7 776.74 685.04 847.22 394.89 928.41 324.4 888.74"/>
      <circle class="cls-6" cx="145.18" cy="248.19" r="12.51"/>
      <circle class="cls-6" cx="545.47" cy="136.18" r="12.51"/>
      <circle class="cls-6" cx="339.81" cy="943.82" r="12.51"/>
      <circle class="cls-6" cx="740.11" cy="831.81" r="12.51"/>
    </g>
    <circle class="cls-5" cx="442.64" cy="540" r="150.65"/>
    <g>
      <g>
        <line class="cls-1" x1="367.89" y1="272.08" x2="376.25" y2="301.96"/>
        <line class="cls-1" x1="461.96" y1="271.55" x2="453.94" y2="301.52"/>
        <line class="cls-1" x1="542.54" y1="318.33" x2="520.49" y2="340.16"/>
        <line class="cls-1" x1="287.34" y1="320.3" x2="309.72" y2="341.78"/>
        <line class="cls-1" x1="242.41" y1="403.07" x2="272.62" y2="410.14"/>
      </g>
      <g>
        <line class="cls-1" x1="517.79" y1="807.81" x2="509.43" y2="777.93"/>
        <line class="cls-1" x1="598.47" y1="759.45" x2="576.06" y2="737.99"/>
        <line class="cls-1" x1="643.07" y1="677.63" x2="612.9" y2="670.42"/>
        <line class="cls-1" x1="423.91" y1="808.4" x2="431.9" y2="778.42"/>
        <line class="cls-1" x1="342.55" y1="760.97" x2="364.7" y2="739.25"/>
      </g>
    </g>
    <g>
      <path class="cls-1" d="M409.33,501.37c3.07,10.97-6.14,23.13-20.57,27.17s-28.62-1.58-31.69-12.55"/>
      <path class="cls-1" d="M503.33,475.07c3.07,10.97-6.14,23.13-20.57,27.17-14.43,4.04-28.62-1.58-31.69-12.55"/>
    </g>
    <path class="cls-1" d="M507.07,569.95c4.53,16.18-15.07,35.81-43.78,43.85-28.71,8.03-55.65,1.42-60.18-14.76"/>
  </g>
  <g>
    <g>
      <rect class="cls-2" x="285.34" y="95.89" width="509.33" height="816" rx="40.6" ry="40.6"/>
      <polygon class="cls-4" points="332.16 807.88 332.16 199.91 389.35 142.72 690.65 142.72 747.84 199.91 747.84 807.88 690.65 865.07 389.35 865.07 332.16 807.88"/>
      <circle class="cls-6" cx="332.16" cy="142.72" r="12.51"/>
      <circle class="cls-6" cx="747.84" cy="142.72" r="12.51"/>
      <circle class="cls-6" cx="332.16" cy="865.07" r="12.51"/>
      <circle class="cls-6" cx="747.84" cy="865.07" r="12.51"/>
    </g>
    <path class="cls-5" d="M514.88,595.11h-15.54c-3.86-20.96-5.78-37.47-5.78-49.52,0-52.77,16.38-91.99,49.16-117.65,32.77-25.66,53.73-44.03,62.89-55.12,9.15-11.08,13.74-24.58,13.74-40.48,0-19.03-8.31-35.66-24.94-49.88-16.63-14.21-37.47-21.32-62.53-21.32-23.38,0-42.65,5.96-57.83,17.89-15.18,11.93-22.77,22.23-22.77,30.9,0,3.61,4.64,5.66,13.92,6.14,9.27.49,17.17,4.28,23.67,11.39,6.51,7.11,9.76,15.12,9.76,24.04,0,9.64-3.56,17.83-10.66,24.58-7.11,6.75-15.6,10.12-25.48,10.12-11.57,0-21.14-3.91-28.73-11.75-7.59-7.83-11.39-19.7-11.39-35.6,0-25.78,10.66-48.01,31.99-66.68,21.32-18.67,47.17-28.01,77.53-28.01,38.31,0,68.85,13.07,91.62,39.22,22.77,26.15,34.15,55.84,34.15,89.09,0,25.06-6.03,47.29-18.07,66.68-12.05,19.4-37.83,42.71-77.35,69.94-32.53,22.89-48.79,45.42-48.79,67.59,0,6.27.48,12.41,1.45,18.43ZM469.7,697.4c0-12.53,4.39-23.19,13.19-31.99,8.79-8.79,19.46-13.19,31.99-13.19s23.31,4.4,32.35,13.19c9.04,8.8,13.55,19.46,13.55,31.99s-4.46,23.62-13.37,32.53c-8.92,8.91-19.76,13.37-32.53,13.37s-23.19-4.52-31.99-13.55c-8.8-9.04-13.19-19.82-13.19-32.35Z"/>
  </g>
  <g>
    <g>
      <rect class="cls-2" x="404.31" y="132" width="509.33" height="816" rx="40.6" ry="40.6" transform="translate(144.17 -138.84) rotate(13.49)"/>
      <polygon class="cls-4" points="385.95 787.1 527.8 195.92 596.75 153.65 889.73 223.94 932 292.9 790.15 884.08 721.2 926.35 428.22 856.06 385.95 787.1"/>
      <circle class="cls-6" cx="541.14" cy="140.3" r="12.51"/>
      <circle class="cls-6" cx="945.34" cy="237.28" r="12.51"/>
      <circle class="cls-6" cx="372.61" cy="842.72" r="12.51"/>
      <circle class="cls-6" cx="776.81" cy="939.7" r="12.51"/>
    </g>
    <path class="cls-5" d="M691.89,402.81c-5.91-1.42-11.81-2.44-17.7-3.09,48.82,19.48,77.23,72.34,64.6,124.95-13.86,57.77-71.92,93.36-129.69,79.5-52.62-12.62-86.83-61.92-82.04-114.27-2.09,5.54-3.86,11.26-5.28,17.17-18.18,75.77,28.51,151.93,104.27,170.1,75.77,18.18,151.93-28.51,170.1-104.27,18.18-75.77-28.51-151.93-104.27-170.1Z"/>
    <g>
      <path class="cls-3" d="M702.19,277.87c-25.62.55-48.67,18.22-54.94,44.34,6.27-26.12-6.26-52.33-28.84-64.44,25.62-.55,48.68-18.24,54.94-44.34-6.26,26.1,6.26,52.33,28.84,64.44Z"/>
      <path class="cls-3" d="M582.88,354.55c-15.26.33-28.99,10.85-32.73,26.41,3.73-15.56-3.73-31.17-17.18-38.39,15.26-.33,29-10.86,32.73-26.41-3.73,15.55,3.73,31.17,17.18,38.39Z"/>
      <path class="cls-3" d="M615.76,802.13c25.62-.55,48.67-18.22,54.94-44.34-6.27,26.12,6.26,52.33,28.84,64.44-25.62.55-48.68,18.24-54.94,44.34,6.26-26.1-6.26-52.33-28.84-64.44Z"/>
      <path class="cls-3" d="M735.07,725.45c15.26-.33,28.99-10.85,32.73-26.41-3.73,15.56,3.73,31.17,17.18,38.39-15.26.33-29,10.86-32.73,26.41,3.73-15.55-3.73-31.17-17.18-38.39Z"/>
    </g>
  </g>
</svg>