<?xml version="1.0" encoding="UTF-8"?>
<svg id="Layer_1" data-name="Layer 1" xmlns="http://www.w3.org/2000/svg" viewBox="0 0 1080 1080">
  <defs>
    <style>
      .cls-1 {
        fill: none;
      }

      .cls-1, .cls-2, .cls-3, .cls-4, .cls-5 {
        stroke: #000;
        stroke-linecap: round;
        stroke-linejoin: round;
        stroke-width: 18px;
      }

      .cls-6 {
        stroke-width: 0px;
      }

      .cls-6, .cls-5 {
        fill: #000;
      }

      .cls-2 {
        fill: #cfcfcf;
      }

      .cls-3 {
        fill: #38fc14;
      }

      .cls-4 {
        fill: #ffdd56;
      }
    </style>
  </defs>
  <g>
    <rect class="cls-4" x="363.35" y="882.16" width="625.99" height="101.87" rx="21.26" ry="21.26"/>
    <rect class="cls-4" x="363.35" y="780.29" width="625.99" height="101.87" rx="21.26" ry="21.26"/>
    <rect class="cls-4" x="363.35" y="678.42" width="625.99" height="101.87" rx="21.26" ry="21.26"/>
  </g>
  <g>
    <line class="cls-1" x1="660.72" y1="293.17" x2="660.72" y2="667.81"/>
    <path class="cls-3" d="M345.13,96.7s11.66,90.29,98.81,144.54c87.15,54.25,216.78,51.91,216.78,51.91,0,0-.83-99.07-87.97-153.32-87.15-54.25-227.61-43.13-227.61-43.13Z"/>
    <path class="cls-3" d="M916.55,132.44s-9.48,73.38-80.3,117.47c-70.83,44.09-176.18,42.19-176.18,42.19,0,0,.67-80.52,71.5-124.61,70.83-44.09,184.99-35.05,184.99-35.05Z"/>
    <path class="cls-5" d="M416.93,678.42h487.57c-129.03-58.18-224.6-112.79-241.92-159.05-19.42,50.11-124.41,109.77-245.65,159.05Z"/>
  </g>
  <circle class="cls-4" cx="387.45" cy="687.46" r="296.78"/>
  <circle class="cls-2" cx="387.45" cy="687.46" r="230.74"/>
  <path class="cls-6" d="M438.71,754.66c0-25.43-14.53-37.54-48.84-49.65l-14.93-5.25c-42.38-14.93-67.4-36.73-67.4-77.09s33.5-73.46,79.92-73.46c40.77,0,73.06,24.22,75.48,58.93-3.23,8.48-10.09,12.51-17.76,12.51-8.88,0-18.97-5.65-23.81-26.64l-6.86-30.67,20.99,14.53c-16.95-6.86-31.48-8.88-43.59-8.88-29.87,0-52.87,14.93-52.87,45.21,0,25.83,16.15,39.96,44.8,49.24l15.34,5.25c54.49,18.97,71.04,45.21,71.04,78.3,0,43.19-33.1,73.86-87.99,73.86-43.19,0-75.88-23.81-77.5-58.93,3.63-8.07,9.28-12.51,18.16-12.51,9.69,0,18.57,5.25,23.41,26.64l6.86,30.67-21.39-14.53c18.57,7.26,36.73,9.28,52.47,9.28,33.1,0,54.49-16.95,54.49-46.82ZM380.18,685.64h16.14v176.38h-16.14v-176.38ZM380.59,685.64v-172.75h16.14v172.75h-16.14Z"/>
</svg>