<?xml version="1.0" encoding="UTF-8"?>
<svg id="Layer_1" data-name="Layer 1" xmlns="http://www.w3.org/2000/svg" viewBox="0 0 1080 1080">
  <defs>
    <style>
      .cls-1 {
        fill: none;
      }

      .cls-1, .cls-2, .cls-3 {
        stroke: #000;
        stroke-linecap: round;
        stroke-linejoin: round;
        stroke-width: 18px;
      }

      .cls-2 {
        fill: #cfcfcf;
      }

      .cls-3 {
        fill: #fce68d;
      }
    </style>
  </defs>
  <g>
    <path class="cls-2" d="M809.6,537.74c-3.22,6.23-7.44,11.02-15.14,11.51-9.89.63-18.09-5.87-19.22-15.48-1.1-9.4,5.1-17.68,14.43-19.24,9.59-1.6,18,4.43,20.01,14.35.25,1.21.53,2.41.8,3.62l-.88,5.24Z"/>
    <path class="cls-2" d="M770.51,612.02c-5.65,30.25-19.77,59.48-38.96,86.01-14.04,19.41-29.85,37.6-45.58,55.73-25.15,29-62.66,29.23-91.56,11.3-11.64-7.22-21.51-16.26-27.68-28.63-8.32-16.68-8.6-33.9,2.99-48.6,14.61-18.54,18.76-39.37,17.44-61.7-.92-15.44-3.17-30.89-6.11-46.09-3.48-17.97-5.4-35.75.42-53.41,8.54-25.93,27.49-40.31,53.49-46.24,49.32-11.24,105.28,14.75,126.97,58.94,11,22.41,12.88,46.01,8.58,72.68Z"/>
    <path class="cls-2" d="M608.45,419.64c16.8,2.86,28.93,19.79,26.21,36.58-2.78,17.17-20.54,30.14-37.22,27.18-16.84-2.99-28.59-20.28-25.55-37.6,3.01-17.13,19.65-29.04,36.56-26.16Z"/>
    <path class="cls-2" d="M749.25,455.47c-2.03,12.74-13.7,21.21-26.42,19.18-13.78-2.2-22.12-14.11-19.79-28.27,2-12.2,14.15-20.57,27.01-18.6,13.04,1.99,21.38,14.02,19.2,27.7Z"/>
    <path class="cls-2" d="M669.28,467.47c-16.2-2.81-25.87-16.76-22.66-33.17,2.99-15.28,16.43-22.95,32.04-21.03,14.63,1.79,24.4,16.55,21.86,31.25-2.56,14.84-16.97,25.42-31.24,22.94Z"/>
    <path class="cls-2" d="M787.09,488.66c-1.88,11.44-12.19,19.07-23.37,17.29-10.66-1.7-18.83-13.46-16.95-24.39,1.84-10.65,12.83-18.46,23.53-16.72,11.05,1.8,18.64,12.56,16.78,23.83Z"/>
  </g>
  <g>
    <path class="cls-2" d="M279.39,454.84c3.22,6.23,7.44,11.02,15.14,11.51,9.89.63,18.09-5.87,19.22-15.48,1.1-9.4-5.1-17.68-14.43-19.24-9.59-1.6-18,4.43-20.01,14.35-.25,1.21-.53,2.41-.8,3.62.29,1.75.59,3.5.88,5.24Z"/>
    <path class="cls-2" d="M318.48,529.11c5.65,30.25,19.77,59.48,38.96,86.01,14.04,19.41,29.85,37.6,45.58,55.73,25.15,29,62.66,29.23,91.56,11.3,11.64-7.22,21.51-16.26,27.68-28.63,8.32-16.68,8.6-33.9-2.99-48.6-14.61-18.54-18.76-39.37-17.44-61.7.92-15.44,3.17-30.89,6.11-46.09,3.48-17.97,5.4-35.75-.42-53.41-8.54-25.93-27.49-40.31-53.49-46.24-49.32-11.24-105.28,14.75-126.97,58.94-11,22.41-12.88,46.01-8.58,72.68Z"/>
    <path class="cls-2" d="M480.54,336.74c-16.8,2.86-28.93,19.79-26.21,36.58,2.78,17.17,20.54,30.14,37.22,27.18,16.84-2.99,28.59-20.28,25.55-37.6-3.01-17.13-19.65-29.04-36.56-26.16Z"/>
    <path class="cls-2" d="M339.74,372.56c2.03,12.74,13.7,21.21,26.42,19.18,13.78-2.2,22.12-14.11,19.79-28.27-2-12.2-14.15-20.57-27.01-18.6-13.04,1.99-21.38,14.02-19.2,27.7Z"/>
    <path class="cls-2" d="M419.71,384.57c16.2-2.81,25.87-16.76,22.66-33.17-2.99-15.28-16.43-22.95-32.04-21.03-14.63,1.79-24.4,16.55-21.86,31.25,2.56,14.84,16.97,25.42,31.24,22.94Z"/>
    <path class="cls-2" d="M301.89,405.75c1.88,11.44,12.19,19.07,23.37,17.29,10.66-1.7,18.83-13.46,16.95-24.39-1.84-10.65-12.83-18.46-23.53-16.72-11.05,1.8-18.64,12.56-16.78,23.83Z"/>
  </g>
  <g>
    <line class="cls-1" x1="539.25" y1="74.52" x2="539.25" y2="140.4"/>
    <line class="cls-1" x1="731.9" y1="127.25" x2="698.36" y2="183.94"/>
    <line class="cls-1" x1="869.91" y1="269.02" x2="812.33" y2="301.03"/>
    <line class="cls-1" x1="346.97" y1="127.03" x2="380.45" y2="183.76"/>
    <line class="cls-1" x1="207.74" y1="270.56" x2="265.46" y2="302.3"/>
  </g>
  <g>
    <g>
      <path class="cls-3" d="M957.96,945.53c-4.41-11.66-9.02-29.7-9.24-48.65-.19-16.12,4.02-32,11.93-46.05,42.73-76,64.33-101.96,54.16-140.12l-72.7-272.73c-6.54-24.53-31.72-39.11-56.24-32.57h0c-24.53,6.54-39.11,31.72-32.57,56.24l58.51,219.51-132.59,77.55-29.69,52.42c-10.01,17.68-11.6,38.91-4.31,57.88l29.35,76.44,183.4.09Z"/>
      <path class="cls-3" d="M870.15,793.2l48.57-83.87c13.26-22.89,5.45-52.2-17.45-65.45h0c-22.89-13.26-52.2-5.45-65.45,17.45l-80.66,139.28"/>
      <rect class="cls-2" x="738.37" y="944.91" width="247.82" height="60.37" rx="11.54" ry="11.54" transform="translate(1726.21 1948.74) rotate(179.9)"/>
    </g>
    <g>
      <path class="cls-3" d="M138.58,945.53c4.41-11.66,9.02-29.7,9.24-48.65.19-16.12-4.02-32-11.93-46.05-42.73-76-64.33-101.96-54.16-140.12l72.7-272.73c6.54-24.53,31.72-39.11,56.24-32.57h0c24.53,6.54,39.11,31.72,32.57,56.24l-58.51,219.51,132.59,77.55,29.69,52.42c10.01,17.68,11.6,38.91,4.31,57.88l-29.35,76.44-183.4.09Z"/>
      <path class="cls-3" d="M226.38,793.2l-48.57-83.87c-13.26-22.89-5.45-52.2,17.45-65.45h0c22.89-13.26,52.2-5.45,65.45,17.45l80.66,139.28"/>
      <rect class="cls-2" x="110.35" y="944.91" width="247.82" height="60.37" rx="11.54" ry="11.54" transform="translate(1.65 -.39) rotate(.1)"/>
    </g>
  </g>
</svg>